PathFileType	4	(X/Y/Z)	C3D_Data\SPM_data\ik.trc
DataRate	CameraRate	NumFrames	NumMarkers	Units	OrigDataRate	OrigDataStartFrame	OrigNumFrames
120.000000	120.000000	4	51	mm	120.000000	49	132
Frame#	Time	Sternum			Neck			RShoulder			LShoulder			Xiphoid			Thoracic			RAsis			LAsis			RPsis			LPsis			Lumbar			RElbow			RWrist			RRadius			RUlna			LElbow			LWrist			LUlna			LRadius			LThighSuperior			LThighInferior			LThighLateral			LPatella			LShankSuperior			LShankInferior			LShankLateral			RThighSuperior			RThighInferior			RThighLateral			RPatella			RShankSuperior			RShankInferior			RShankLateral			RHeel			RToe			RMidfootLateral			RHindfoot			LHeel			LToe			LMidfootMedial			LMidfootLateral			LHindfoot			LMidfootSuperior			LToeMedial			LToeLateral			Oglobal			Sacral			Xglobal			Yglobal			Zglobal			RMidfootSuperior			
		X1	Y1	Z1	X2	Y2	Z2	X3	Y3	Z3	X4	Y4	Z4	X5	Y5	Z5	X6	Y6	Z6	X7	Y7	Z7	X8	Y8	Z8	X9	Y9	Z9	X10	Y10	Z10	X11	Y11	Z11	X12	Y12	Z12	X13	Y13	Z13	X14	Y14	Z14	X15	Y15	Z15	X16	Y16	Z16	X17	Y17	Z17	X18	Y18	Z18	X19	Y19	Z19	X20	Y20	Z20	X21	Y21	Z21	X22	Y22	Z22	X23	Y23	Z23	X24	Y24	Z24	X25	Y25	Z25	X26	Y26	Z26	X27	Y27	Z27	X28	Y28	Z28	X29	Y29	Z29	X30	Y30	Z30	X31	Y31	Z31	X32	Y32	Z32	X33	Y33	Z33	X34	Y34	Z34	X35	Y35	Z35	X36	Y36	Z36	X37	Y37	Z37	X38	Y38	Z38	X39	Y39	Z39	X40	Y40	Z40	X41	Y41	Z41	X42	Y42	Z42	X43	Y43	Z43	X44	Y44	Z44	X45	Y45	Z45	X46	Y46	Z46	X47	Y47	Z47	X48	Y48	Z48	X49	Y49	Z49	X50	Y50	Z50	X51	Y51	Z51	

50	0.4083333333333334	564.0289306640625	1452.46533203125	145.9084777832031	401.9862670898438	1554.787841796875	143.015884399414	444.6796569824218	1542.622680664063	306.4583740234374	436.8290100097656	1542.6728515625	6.050986289977986	594.0867309570313	1294.140258789063	157.3155364990234	316.7051086425781	1338.670043945313	154.704849243164	496.9053955078124	1026.526611328125	298.6841735839844	511.9108276367188	1026.981811523438	23.55817794799805	312.9270629882813	1061.729614257813	209.5731811523437	311.822021484375	1052.109497070313	104.7689590454101	327.1556091308594	1158.73876953125	161.3776397705078	362.7178955078124	1215.328002929688	405.2937927246094	434.2264404296874	953.3805541992188	431.0219421386719	453.7099609374999	945.181884765625	381.8847351074219	390.3479919433593	943.59814453125	432.0783081054688	444.9826965332031	1207.35986328125	-123.5108413696289	642.1824951171875	1033.1455078125	-176.9592895507812	612.0245971679688	1002.535949707031	-158.037841796875	673.79638671875	1046.851684570313	-141.0191497802734	434.5252075195313	848.12548828125	-24.54837608337402	430.49462890625	615.6575317382813	19.45849800109865	514.6956787109375	713.655029296875	63.93075942993166	494.3976745605469	524.430419921875	96.13420867919925	401.4143371582031	377.546142578125	23.46407318115237	344.068359375	184.1035919189453	60.27102279663089	405.6385192871094	272.3168334960938	96.38393402099612	522.4287719726563	851.0020141601563	343.000244140625	573.9552612304688	619.8264770507813	328.4988403320313	603.1858520507813	789.69970703125	276.6809692382813	666.7085571289063	557.354248046875	274.1260375976563	566.6469116210938	467.1803588867188	342.1174011230469	553.2735595703125	212.6841125488282	313.1441650390626	612.2606811523438	337.5615844726563	267.2646789550782	465.9895629882812	92.85655975341798	264.2503051757813	780.2471923828125	81.82737731933595	265.8544006347657	681.7938232421875	56.90686416625979	333.3367004394532	630.5491333007813	57.60074615478518	326.3149414062501	233.1453704833984	60.85969543457032	111.9948883056641	550.1436157226563	58.05522155761719	79.31813812255866	453.9526672363281	35.22410202026368	140.9638061523438	445.0099182128906	32.37914276123047	22.8485889434815	390.3601684570313	31.09567260742188	36.40059280395513	426.2669677734375	95.87703704833984	92.56906127929693	496.4192199707031	35.76311492919923	132.8219146728516	489.4525146484375	41.72962951660156	29.21059799194342	0	0	0	312.3745422363281	1056.919555664063	157.1710662841797	-200	0	-2.449293598294706e-14	-2.449293598294706e-14	1.224646799147353e-14	200	1.499759782661858e-30	200	-1.224646799147353e-14	648.6075439453125	133.367172241211	277.0449523925782	
51	0.4166666666666667	573.2637329101563	1451.765869140625	146.7200469970703	410.9203796386719	1553.9091796875	143.1543579101562	453.6028137207031	1541.753295898438	306.7173156738281	445.7968444824219	1541.861083984375	6.357763767242392	602.8418579101563	1293.056274414063	157.5348663330078	325.4424133300781	1337.896484375	155.1206817626953	505.7792968749999	1025.222534179688	298.567626953125	519.9840698242188	1026.299438476563	23.48757743835449	321.583740234375	1060.926025390625	210.107437133789	320.1540222167969	1051.480346679688	105.3139572143554	335.8146057128906	1157.990112304688	162.1057739257812	368.9190063476562	1215.375244140625	405.515380859375	438.5555114746093	952.861572265625	430.89208984375	457.7490844726562	944.6127319335938	381.7730102539063	394.3772888183593	943.2743530273438	431.7330627441406	456.3401794433594	1207.118408203125	-124.4869613647461	656.4088134765625	1035.9052734375	-176.9754028320312	626.6295166015625	1004.812377929688	-158.3705291748047	687.5545043945313	1050.084716796875	-140.4701538085937	441.2563171386719	847.5650024414063	-24.75346374511719	435.0480651855469	615.078857421875	19.24016189575197	520.294189453125	712.3165893554688	63.81864929199221	498.2178955078125	523.2181396484375	95.93045043945315	403.8375244140625	377.3114013671875	23.53206443786624	345.3433532714844	183.8929443359375	60.71784973144534	407.3889465332031	271.5630798339844	96.68138122558598	529.6473999023438	849.6190795898438	342.6382751464844	581.1589965820313	618.3997802734375	327.6117858886719	609.8052978515625	787.2364501953125	275.6257934570313	674.7760620117188	557.4618530273438	273.4993896484375	578.2169799804688	464.7100830078125	341.6782836914063	577.00341796875	209.8968811035157	312.8945617675782	630.4771728515625	337.4501953125	267.1819763183594	495.7990417480468	85.70122528076173	263.9725341796876	810.2160034179688	88.87041473388673	265.9902648925782	712.8869018554688	59.74096679687502	333.3116149902345	661.6781616210938	58.06865692138674	326.2219238281251	233.1760864257813	60.84762191772462	111.9674835205078	550.2673950195313	57.8575782775879	79.25245666503913	454.0485534667969	35.33130645751954	141.0114746093751	444.9909973144531	32.27049255371094	22.73501777648931	390.1155395507813	31.58583068847657	36.38534164428716	426.3882141113281	95.75338745117188	92.57376861572271	496.53076171875	35.77441024780274	132.830551147461	489.5134887695313	41.55886459350586	29.21231269836431	0	0	0	320.868896484375	1056.203125	157.710693359375	-200	0	-2.449293598294706e-14	-2.449293598294706e-14	1.224646799147353e-14	200	1.499759782661858e-30	200	-1.224646799147353e-14	678.7888793945313	134.5048065185547	277.0331420898438	
52	0.4250000000000001	581.801025390625	1450.4140625	146.8180847167969	419.8905029296875	1552.924682617188	143.2999572753906	462.3322448730468	1540.982421875	306.9635925292968	454.8017578125	1540.927856445313	6.761120319366417	611.3919677734375	1291.841186523438	157.6971282958984	334.1072998046875	1336.9931640625	155.6491088867187	514.69384765625	1023.702270507813	298.5658264160156	528.1026611328125	1025.412109375	23.61665725708008	330.309326171875	1060.007934570313	210.7460327148437	328.5379333496094	1050.801513671875	106.0238494873047	344.6080627441406	1157.14697265625	162.9967803955078	375.2558898925781	1215.313232421875	405.6629028320313	443.0530090332031	952.1768798828125	430.9258422851563	462.2137145996093	943.875732421875	381.8146667480469	398.8433532714843	943.1273193359375	431.8653564453125	467.6504516601563	1206.781005859375	-125.2904815673828	670.4093017578125	1038.47705078125	-176.7205810546875	640.857177734375	1007.054382324219	-158.7723236083984	700.6931762695313	1053.0595703125	-140.1194152832031	446.6565856933594	846.838134765625	-24.40421485900879	439.9689636230469	614.3373413085938	19.16720390319826	526.0914916992188	711.091064453125	63.68302917480471	502.2579345703125	521.8482666015625	95.77024078369143	406.5358276367188	376.8015441894531	23.45673561096194	345.9772644042969	184.0410308837891	60.68882751464847	408.9978942871094	271.2738647460938	96.79936218261723	536.34619140625	847.8731079101563	342.2848815917969	587.8427734375	616.6099853515625	326.7333374023438	617.259521484375	785.5047607421875	275.55224609375	682.1222534179688	557.0206298828125	272.7327270507813	589.6375732421875	462.4049072265625	341.1530456542969	600.6904296875	207.775390625	312.8258972167969	648.216796875	337.6539306640625	267.1173706054688	525.3115844726563	79.40176391601564	263.4426269531251	839.25	96.90290832519533	266.1748657226564	743.1224975585938	63.19659805297854	333.4867248535157	692.1051635742188	59.26648712158205	326.1094970703126	233.2713623046875	61.09827041625977	112.0459442138672	550.3823852539063	57.64512634277344	79.15158843994148	454.0755920410156	35.44892883300782	141.0851440429688	444.9994812011719	32.25356674194336	22.69642448425298	390.0247802734375	31.66920852661133	36.36038970947271	426.4762573242188	95.70729064941406	92.55901336669928	496.6356201171875	35.78624343872071	132.8114013671876	489.5404663085938	41.43148040771484	29.19078826904303	0	0	0	329.4236450195313	1055.404663085938	158.3849334716797	-200	0	-2.449293598294706e-14	-2.449293598294706e-14	1.224646799147353e-14	200	1.499759782661858e-30	200	-1.224646799147353e-14	708.26806640625	136.3723907470703	277.0018005371095	
53	0.4333333333333334	590.5064086914063	1449.103759765625	147.1847534179688	428.8301086425781	1551.82470703125	143.6807250976562	471.1484680175781	1540.05224609375	307.3685302734374	463.7783813476563	1539.887817382813	7.210798263549767	619.96630859375	1290.32763671875	157.7792663574219	342.7989501953125	1336.03564453125	156.3025665283203	523.6629028320313	1022.148803710938	298.7417297363281	535.4515380859375	1024.38525390625	23.14899635314941	338.8580932617188	1059.158935546875	212.116455078125	336.4898986816406	1050.033813476563	106.9117965698242	353.116455078125	1156.2958984375	164.1778259277344	381.7199096679687	1215.05712890625	406.0037231445313	447.7906188964843	951.576416015625	430.9204711914063	467.1108398437499	943.2625732421875	381.9084167480469	403.5229797363281	942.7291870117188	431.9084167480469	478.8230895996094	1206.369262695313	-125.9290008544922	683.9640502929688	1040.752563476563	-176.4184265136718	654.8411254882813	1008.721069335938	-158.6323852539062	713.7658081054688	1055.620483398438	-139.483413696289	452.1724548339844	846.0234375	-24.58765029907226	445.0054321289063	613.5081787109375	18.56155967712404	531.9195556640625	709.5950317382813	63.40141296386721	506.44873046875	520.4570922851563	95.60071563720706	409.2539978027344	376.4019165039063	23.51106452941897	346.57763671875	184.2555389404297	60.53129196166995	410.8175659179688	270.7140197753906	96.62380981445317	542.6717529296875	845.6846923828125	342.0657653808594	594.1535034179688	614.377685546875	325.9891052246094	624.5660400390625	783.1786499023438	275.264892578125	689.7798461914063	556.5487060546875	272.3624267578125	600.6148071289063	460.09619140625	340.5675659179688	623.5010375976563	206.3005676269532	312.5775146484376	665.2636108398438	337.9707641601563	266.8749694824219	554.2058715820313	74.09787750244142	262.8649597167969	866.9603271484375	105.8043212890625	266.4516906738282	772.368408203125	67.38537597656251	333.3709411621095	721.7007446289063	61.18092346191408	325.7833862304689	233.3174591064453	61.28336334228516	111.9603652954102	550.4865112304688	57.43347549438477	79.13209533691413	454.2556762695313	35.54954147338868	140.9818115234376	443.1838989257813	34.0055046081543	21.58748435974126	390.36865234375	31.15941429138184	36.64852142333989	426.59912109375	95.59937286376953	92.50740051269537	496.6494445800781	35.43236923217774	132.643051147461	489.2611083984375	42.80220031738281	29.1513175964356	0	0	0	337.6739807128906	1054.596435546875	159.5141143798828	-200	0	-2.449293598294706e-14	-2.449293598294706e-14	1.224646799147353e-14	200	1.499759782661858e-30	200	-1.224646799147353e-14	736.916015625	138.9565582275391	276.7568969726564	
